<?xml version="1.0" encoding="utf-8"?>
<!-- Uploaded to: SVG Repo, www.svgrepo.com, Generator: SVG Repo Mixer Tools -->
<svg width="800px" height="800px" viewBox="0 0 1024 1024" fill="#000000" class="icon"  version="1.1" xmlns="http://www.w3.org/2000/svg"><path d="M456.8 994.4c27.2 30.4 72.8 30.4 100-0.8 2.4-2.4 7.2-8 14.4-16 12-12.8 24.8-28 38.4-44.8 40-47.2 80-98.4 117.6-150.4s70.4-103.2 96.8-151.2c49.6-88.8 76.8-165.6 76.8-228.8 0.8-222.4-176-402.4-394.4-402.4S112 180 112 402.4c0 63.2 27.2 140.8 76.8 229.6 27.2 48 60 99.2 96.8 151.2 37.6 52 77.6 103.2 117.6 150.4 14.4 16.8 27.2 32 38.4 44.8 8 8 12.8 13.6 15.2 16z m35.2-32.8c-2.4-2.4-7.2-8-14.4-16-11.2-12.8-24-28-37.6-44-39.2-46.4-78.4-96.8-115.2-147.2C288 703.2 256 654.4 230.4 608 184.8 525.6 160 455.2 160 402.4 160 207.2 315.2 48.8 506.4 48.8s347.2 158.4 347.2 353.6c0 52.8-24.8 123.2-70.4 204.8-25.6 46.4-57.6 96-94.4 146.4-36.8 51.2-76 100.8-115.2 147.2-13.6 16-26.4 31.2-37.6 44-7.2 8-12 12.8-14.4 16-8.8 9.6-20.8 10.4-29.6 0.8z" fill="" /><path d="M506.4 578.4c-108 0-196-88-196-196s88-196 196-196 196 88 196 196-88 196-196 196z m0-344c-81.6 0-148 66.4-148 148s66.4 148 148 148S654.4 464 654.4 382.4s-66.4-148-148-148z" fill="" /></svg>